<svg width="18" height="17" viewBox="0 0 18 17" fill="none" xmlns="http://www.w3.org/2000/svg">
<path d="M1.58785 2.90307L1.58785 1.36996C1.58785 0.720806 2.1127 0.195958 2.7584 0.199411L16.18 0.195959C16.8292 0.195959 17.354 0.720807 17.3506 1.36651L17.3506 14.7916C17.3506 15.4407 16.8257 15.9656 16.18 15.9621L14.6469 15.9621C13.9908 15.9621 13.4625 15.42 13.4764 14.7639L13.6732 6.63916L3.7494 16.5629C3.29016 17.0222 2.55123 17.0222 2.09198 16.5629L0.98704 15.458C0.527798 14.9987 0.527798 14.2598 0.98704 13.8006L10.9108 3.8768L2.78602 4.07362C2.12651 4.09088 1.5844 3.56258 1.58785 2.90307Z" fill="#ff753e"/>
</svg>
